<svg width="48" height="48" viewBox="0 0 48 48" fill="none" xmlns="http://www.w3.org/2000/svg">
<g id="Frame" clip-path="url(#clip0_3_18)">
<path id="Vector" d="M24 0.75C11.1562 0.75 0.75 11.1562 0.75 24C0.75 36.8438 11.1562 47.25 24 47.25C36.8438 47.25 47.25 36.8438 47.25 24C47.25 11.1562 36.8438 0.75 24 0.75ZM32.6709 30.0938L30.7959 32.4375C30.6729 32.5913 30.5207 32.7194 30.3482 32.8145C30.1756 32.9095 29.9861 32.9696 29.7903 32.9914C29.5945 33.0132 29.3963 32.9961 29.2071 32.9413C29.0179 32.8865 28.8413 32.7949 28.6875 32.6719L22.4062 28.0106C21.9674 27.6592 21.6131 27.2137 21.3697 26.7069C21.1263 26.2001 20.9999 25.645 21 25.0828V10.5C21 10.1022 21.158 9.72064 21.4393 9.43934C21.7206 9.15804 22.1022 9 22.5 9H25.5C25.8978 9 26.2794 9.15804 26.5607 9.43934C26.842 9.72064 27 10.1022 27 10.5V24L32.4375 27.9844C32.5914 28.1075 32.7195 28.2597 32.8146 28.4324C32.9096 28.6051 32.9697 28.7948 32.9914 28.9907C33.013 29.1866 32.9959 29.3848 32.9409 29.5741C32.8859 29.7634 32.7942 29.94 32.6709 30.0938Z" fill="#3B82F6"/>
</g>
<defs>
<clipPath id="clip0_3_18">
<rect width="48" height="48" fill="white"/>
</clipPath>
</defs>
</svg>
