<svg width="48" height="48" viewBox="0 0 48 48" fill="none" xmlns="http://www.w3.org/2000/svg">
<g id="Frame">
<path id="Vector" d="M13.0884 3.32811C12.9839 3.22323 12.8597 3.14001 12.723 3.08323C12.5862 3.02645 12.4396 2.99722 12.2916 2.99722C12.1435 2.99722 11.9969 3.02645 11.8601 3.08323C11.7234 3.14001 11.5992 3.22323 11.4947 3.32811L5.52469 9.26342L3.39656 7.18967C3.29204 7.08479 3.16785 7.00158 3.03111 6.9448C2.89436 6.88801 2.74775 6.85879 2.59969 6.85879C2.45162 6.85879 2.30501 6.88801 2.16827 6.9448C2.03152 7.00158 1.90733 7.08479 1.80281 7.18967L0.330937 8.66342C0.226057 8.76794 0.14284 8.89213 0.0860592 9.02888C0.0292782 9.16562 4.95911e-05 9.31223 4.95911e-05 9.4603C4.95911e-05 9.60836 0.0292782 9.75497 0.0860592 9.89172C0.14284 10.0285 0.226057 10.1527 0.330937 10.2572L4.7925 14.7009C5.0152 14.9126 5.31071 15.0307 5.61797 15.0307C5.92522 15.0307 6.22074 14.9126 6.44344 14.7009L7.905 13.2365L14.6737 6.46874C14.8846 6.25767 15.0038 5.97196 15.0054 5.67359C15.007 5.37523 14.8908 5.08827 14.6822 4.87499L13.0884 3.32811ZM13.0884 18.2522C12.9839 18.1473 12.8597 18.0641 12.723 18.0073C12.5862 17.9505 12.4396 17.9213 12.2916 17.9213C12.1435 17.9213 11.9969 17.9505 11.8601 18.0073C11.7234 18.0641 11.5992 18.1473 11.4947 18.2522L5.52469 24.2259L3.39656 22.154C3.29204 22.0492 3.16785 21.966 3.03111 21.9092C2.89436 21.8524 2.74775 21.8232 2.59969 21.8232C2.45162 21.8232 2.30501 21.8524 2.16827 21.9092C2.03152 21.966 1.90733 22.0492 1.80281 22.154L0.330937 23.625C0.226057 23.7295 0.14284 23.8537 0.0860592 23.9904C0.0292782 24.1272 4.95911e-05 24.2738 4.95911e-05 24.4219C4.95911e-05 24.5699 0.0292782 24.7165 0.0860592 24.8533C0.14284 24.99 0.226057 25.1142 0.330937 25.2187L4.78125 29.6719C5.00379 29.8835 5.29915 30.0015 5.60625 30.0015C5.91335 30.0015 6.20871 29.8835 6.43125 29.6719L7.90312 28.2009L14.6719 21.4303C14.882 21.2207 15.0007 20.9366 15.0023 20.6398C15.0039 20.3431 14.8882 20.0577 14.6803 19.8459L13.0884 18.2522ZM6 34.5C3.51656 34.5 1.44469 36.5156 1.44469 39C1.44469 41.4844 3.51844 43.5 6 43.5C7.19347 43.5 8.33807 43.0259 9.18198 42.182C10.0259 41.3381 10.5 40.1935 10.5 39C10.5 37.8065 10.0259 36.6619 9.18198 35.818C8.33807 34.9741 7.19347 34.5 6 34.5ZM46.5 36H19.5C19.1022 36 18.7206 36.158 18.4393 36.4393C18.158 36.7206 18 37.1022 18 37.5V40.5C18 40.8978 18.158 41.2793 18.4393 41.5606C18.7206 41.8419 19.1022 42 19.5 42H46.5C46.8978 42 47.2794 41.8419 47.5607 41.5606C47.842 41.2793 48 40.8978 48 40.5V37.5C48 37.1022 47.842 36.7206 47.5607 36.4393C47.2794 36.158 46.8978 36 46.5 36ZM46.5 5.99999H19.5C19.1022 5.99999 18.7206 6.15802 18.4393 6.43933C18.158 6.72063 18 7.10216 18 7.49999V10.5C18 10.8978 18.158 11.2793 18.4393 11.5606C18.7206 11.8419 19.1022 12 19.5 12H46.5C46.8978 12 47.2794 11.8419 47.5607 11.5606C47.842 11.2793 48 10.8978 48 10.5V7.49999C48 7.10216 47.842 6.72063 47.5607 6.43933C47.2794 6.15802 46.8978 5.99999 46.5 5.99999ZM46.5 21H19.5C19.1022 21 18.7206 21.158 18.4393 21.4393C18.158 21.7206 18 22.1022 18 22.5V25.5C18 25.8978 18.158 26.2793 18.4393 26.5606C18.7206 26.842 19.1022 27 19.5 27H46.5C46.8978 27 47.2794 26.842 47.5607 26.5606C47.842 26.2793 48 25.8978 48 25.5V22.5C48 22.1022 47.842 21.7206 47.5607 21.4393C47.2794 21.158 46.8978 21 46.5 21Z" fill="#22C55E"/>
</g>
</svg>
