<svg width="48" height="48" viewBox="0 0 48 48" fill="none" xmlns="http://www.w3.org/2000/svg">
<g id="Frame" clip-path="url(#clip0_3_11)">
<path id="Vector" d="M14.4 24C19.0425 24 22.8 20.2425 22.8 15.6C22.8 10.9575 19.0425 7.20001 14.4 7.20001C9.7575 7.20001 6 10.9575 6 15.6C6 20.2425 9.7575 24 14.4 24ZM20.16 26.4H19.5375C17.9775 27.15 16.245 27.6 14.4 27.6C12.555 27.6 10.83 27.15 9.2625 26.4H8.64C3.87 26.4 0 30.27 0 35.04V37.2C0 39.1875 1.6125 40.8 3.6 40.8H25.2C27.1875 40.8 28.8 39.1875 28.8 37.2V35.04C28.8 30.27 24.93 26.4 20.16 26.4ZM36 24C39.975 24 43.2 20.775 43.2 16.8C43.2 12.825 39.975 9.60001 36 9.60001C32.025 9.60001 28.8 12.825 28.8 16.8C28.8 20.775 32.025 24 36 24ZM39.6 26.4H39.315C38.2725 26.76 37.17 27 36 27C34.83 27 33.7275 26.76 32.685 26.4H32.4C30.87 26.4 29.46 26.8425 28.2225 27.555C30.0525 29.5275 31.2 32.145 31.2 35.04V37.92C31.2 38.085 31.1625 38.2425 31.155 38.4H44.4C46.3875 38.4 48 36.7875 48 34.8C48 30.1575 44.2425 26.4 39.6 26.4Z" fill="#EF4444"/>
</g>
<defs>
<clipPath id="clip0_3_11">
<rect width="48" height="48" fill="white"/>
</clipPath>
</defs>
</svg>
